HIERARCHY
ROOT Hips
{
 OFFSET 0.000000 0.000000 0.000000
 CHANNELS 6 Xposition Yposition Zposition Yrotation Xrotation Zrotation
 JOINT Chest
 {
  OFFSET 0.000000 9.585900 0.002600
  CHANNELS 3 Yrotation Xrotation Zrotation
  JOINT Chest2
  {
   OFFSET 0.000000 9.601200 -0.005300
   CHANNELS 3 Yrotation Xrotation Zrotation
   JOINT Chest3
   {
    OFFSET 0.000000 9.561800 0.000000
    CHANNELS 3 Yrotation Xrotation Zrotation
    JOINT Chest4
    {
     OFFSET 0.000000 9.552100 0.000000
     CHANNELS 3 Yrotation Xrotation Zrotation
     JOINT Neck
     {
      OFFSET 0.000000 14.453000 0.000000
      CHANNELS 3 Yrotation Xrotation Zrotation
      JOINT Head
      {
       OFFSET 0.000000 8.936500 -0.011300
       CHANNELS 3 Yrotation Xrotation Zrotation
       End Site
       {
        OFFSET 0.000000 17.073600 -0.006000
       }
      }
     }
     JOINT RightCollar
     {
      OFFSET -2.921100 9.558500 0.000000
      CHANNELS 3 Yrotation Xrotation Zrotation
      JOINT RightShoulder
      {
       OFFSET -13.519700 0.000000 0.000000
       CHANNELS 3 Yrotation Xrotation Zrotation
       JOINT RightElbow
       {
        OFFSET 0.000000 -29.696600 0.000000
        CHANNELS 3 Yrotation Xrotation Zrotation
        JOINT RightWrist
        {
         OFFSET 0.000000 -24.004700 0.000000
         CHANNELS 3 Yrotation Xrotation Zrotation
         End Site
         {
          OFFSET 0.000000 -17.728500 0.000000
         }
        }
       }
      }
     }
     JOINT LeftCollar
     {
      OFFSET 2.921100 9.558500 0.000000
      CHANNELS 3 Yrotation Xrotation Zrotation
      JOINT LeftShoulder
      {
       OFFSET 13.519700 0.000000 0.000000
       CHANNELS 3 Yrotation Xrotation Zrotation
       JOINT LeftElbow
       {
        OFFSET 0.000000 -29.696600 0.000000
        CHANNELS 3 Yrotation Xrotation Zrotation
        JOINT LeftWrist
        {
         OFFSET 0.000000 -24.004700 0.000000
         CHANNELS 3 Yrotation Xrotation Zrotation
         End Site
         {
          OFFSET 0.000000 -17.728500 0.000000
         }
        }
       }
      }
     }
    }
   }
  }
 }
 JOINT RightHip
 {
  OFFSET -7.771700 -0.012900 -0.001300
  CHANNELS 3 Yrotation Xrotation Zrotation
  JOINT RightKnee
  {
   OFFSET 0.000000 -40.869800 0.001200
   CHANNELS 3 Yrotation Xrotation Zrotation
   JOINT RightAnkle
   {
    OFFSET 0.000000 -39.717900 0.002100
    CHANNELS 3 Yrotation Xrotation Zrotation
    JOINT RightToe
    {
     OFFSET 0.000000 -4.965400 11.033500
     CHANNELS 3 Yrotation Xrotation Zrotation
     End Site
     {
      OFFSET 0.000000 -1.423100 5.872300
     }
    }
   }
  }
 }
 JOINT LeftHip
 {
  OFFSET 7.771700 -0.012900 -0.001300
  CHANNELS 3 Yrotation Xrotation Zrotation
  JOINT LeftKnee
  {
   OFFSET 0.000000 -40.869800 0.001200
   CHANNELS 3 Yrotation Xrotation Zrotation
   JOINT LeftAnkle
   {
    OFFSET 0.000000 -39.717900 0.002100
    CHANNELS 3 Yrotation Xrotation Zrotation
    JOINT LeftToe
    {
     OFFSET 0.000000 -4.965400 11.033500
     CHANNELS 3 Yrotation Xrotation Zrotation
     End Site
     {
      OFFSET 0.000000 -1.423100 5.872300
     }
    }
   }
  }
 }
}
MOTION
Frames: 9
Frame Time: 0.008333
-41.908291 44.111618 34.555707 175.279073 -37.138019 0.624068 -0.009354 21.539565 2.090098 -0.030634 2.901272 0.349177 -0.040866 4.724009 0.568351 0.090380 18.232587 2.200244 -1.602366 15.620910 -5.898247 -0.375417 -9.249342 -5.980136 13.210713 -1.580524 -4.942696 10.955197 -28.263715 -19.459732 177.386856 -49.897676 -159.326004 0.296053 -8.706495 -56.478775 -18.396622 -1.277614 -5.360943 19.825861 -7.452788 -2.017175 32.014271 -59.912388 -23.594512 14.925610 17.008296 28.484217 -1.776142 -55.545864 10.606115 -149.919082 71.630063 -149.579981 -14.564653 -23.818058 8.667112 0.668031 -0.874721 0.314541 3.653875 -44.922474 -4.516153 173.911624 64.118148 175.081326 -0.406029 -34.154803 1.378738 0.017823 0.228569 -0.014293
-41.908591 44.103669 34.523395 175.273328 -36.912607 0.645364 0.003034 21.466798 2.098653 -0.030475 2.882756 0.350077 -0.040604 4.695370 0.569994 0.111631 18.240506 2.256476 -1.624981 15.536207 -5.936793 -0.371166 -9.277623 -5.984223 13.187778 -1.570823 -4.943972 10.970399 -28.290121 -19.458316 177.281066 -49.899541 -159.247909 0.312878 -8.727412 -56.394377 -18.427799 -1.396033 -5.386701 19.835834 -7.425622 -2.022678 32.030154 -59.940669 -23.619896 14.925707 16.996688 28.482346 -1.762228 -55.776567 10.606776 -149.958024 71.573119 -149.624078 -14.561247 -23.864606 8.672364 0.663332 -0.879734 0.320585 3.691923 -45.124671 -4.578220 173.892126 64.092943 175.060865 -0.398625 -34.212033 1.382217 0.017877 0.226104 -0.014449
-41.908137 44.095202 34.491541 175.262495 -36.685535 0.661950 0.019860 21.391622 2.113310 -0.030452 2.864427 0.350849 -0.040580 4.666984 0.571467 0.112381 18.192278 2.269858 -1.618981 15.504876 -5.940240 -0.371950 -9.305980 -5.993888 13.179904 -1.592521 -4.966122 10.947580 -28.260449 -19.367620 177.177237 -49.897534 -159.170957 0.325109 -8.687778 -56.295079 -18.443442 -1.414547 -5.376959 19.846158 -7.392965 -2.054807 32.076069 -59.996308 -23.679592 14.873953 16.969007 28.469216 -1.748823 -56.006155 10.609245 -150.006988 71.525768 -149.677100 -14.538072 -23.908169 8.684459 0.648279 -0.884672 0.312409 3.729250 -45.329533 -4.631691 173.861799 64.065805 175.032070 -0.391324 -34.268333 1.384020 0.015083 0.234061 -0.021992
-41.915766 44.093894 34.449277 175.331696 -36.533906 0.681934 -0.049882 21.388717 2.072643 -0.030355 2.846419 0.351699 -0.040409 4.639115 0.573063 0.113760 18.144560 2.283743 -1.618892 15.464459 -5.952445 -0.357201 -9.338639 -5.994548 13.172161 -1.612183 -4.988255 10.921218 -28.238575 -19.284948 177.080700 -49.891502 -159.098254 0.339982 -8.650968 -56.191573 -18.463256 -1.420131 -5.366077 19.855257 -7.368711 -2.091323 32.095821 -60.056387 -23.691876 14.882382 16.966367 28.437508 -1.708875 -56.164107 10.511785 -150.065576 71.447050 -149.743275 -14.547081 -23.906152 8.716006 0.669645 -0.951826 0.320505 3.747488 -45.453344 -4.748257 173.839301 64.042850 175.005723 -0.418305 -34.312980 1.400489 0.039370 0.226320 -0.014943
-41.913677 44.086120 34.416122 175.327819 -36.321483 0.681929 -0.036445 21.322545 2.100154 -0.030078 2.829315 0.352836 -0.039988 4.612666 0.575014 0.116366 18.098922 2.299077 -1.632670 15.410681 -5.982052 -0.321638 -9.371952 -5.981128 13.160085 -1.574799 -4.953212 10.924241 -28.269174 -19.286605 177.000706 -49.883652 -159.035518 0.357383 -8.638248 -56.099548 -18.479150 -1.402345 -5.337280 19.851352 -7.372848 -2.147925 32.084032 -60.112527 -23.678778 14.861052 16.954194 28.398055 -1.684202 -56.384125 10.531456 -150.058570 71.390529 -149.719320 -14.586880 -23.918826 8.729246 0.697343 -0.970484 0.337846 3.764556 -45.644033 -4.779774 173.827664 64.013964 174.994663 -0.410581 -34.371816 1.407128 0.038174 0.229185 -0.019535
-41.909760 44.075705 34.386524 175.284715 -36.085526 0.692010 0.012170 21.230735 2.140657 -0.029546 2.813043 0.354199 -0.039154 4.587532 0.577376 0.120755 18.055267 2.315803 -1.627018 15.371805 -5.990066 -0.313260 -9.417717 -5.991581 13.147392 -1.560085 -4.944404 10.911994 -28.290558 -19.262585 176.931818 -49.876831 -158.978364 0.367166 -8.651825 -56.023213 -18.496606 -1.397393 -5.317627 19.836134 -7.370340 -2.186399 32.083101 -60.166969 -23.666082 14.757633 16.951778 28.337668 -1.671818 -56.623105 10.576802 -150.092651 71.347626 -149.750129 -14.541637 -23.970012 8.712451 0.642872 -0.958222 0.341973 3.807061 -45.859207 -4.795247 173.825764 63.984448 174.995139 -0.393994 -34.427366 1.411355 0.023756 0.223369 -0.016893
-41.907188 44.068416 34.352352 175.269136 -35.884574 0.696386 0.033111 21.171982 2.170264 -0.028799 2.797222 0.355470 -0.039261 4.512314 0.566081 0.131903 18.063376 2.346699 -1.622693 15.327953 -5.998507 -0.305023 -9.456729 -6.003004 13.134546 -1.584535 -4.972820 10.881158 -28.286090 -19.197805 176.866283 -49.870212 -158.926807 0.372772 -8.664868 -55.952391 -18.514576 -1.395533 -5.300243 19.816602 -7.381016 -2.216565 32.065021 -60.211941 -23.641654 14.737783 16.949610 28.300736 -1.642384 -56.827770 10.596129 -150.113463 71.301625 -149.760855 -14.548082 -23.980701 8.709209 0.622662 -0.956248 0.337770 3.831452 -46.033879 -4.826855 173.813010 63.956739 174.986628 -0.378047 -34.490922 1.407039 0.019329 0.230207 -0.017386
-41.903591 44.061594 34.317313 175.261753 -35.691756 0.691258 0.047511 21.119469 2.204656 -0.027895 2.781913 0.356476 -0.037054 4.514393 0.574630 0.135635 17.996274 2.354371 -1.595102 15.304747 -5.983139 -0.315323 -9.509136 -6.031738 13.121689 -1.609999 -4.999375 10.874341 -28.294687 -19.183940 176.828517 -49.879583 -158.931570 0.393734 -8.663450 -55.895772 -18.533253 -1.407725 -5.288497 19.748152 -7.349187 -2.185578 32.094459 -60.267411 -23.627912 14.797672 16.937071 28.256952 -1.623699 -57.021795 10.621646 -150.143613 71.255119 -149.779722 -14.547651 -23.996502 8.704335 0.622630 -0.971084 0.356229 3.834657 -46.203989 -4.839720 173.816725 63.926035 174.986092 -0.365189 -34.548610 1.404927 0.016599 0.231206 -0.016478
-41.900112 44.054908 34.281724 175.262995 -35.503544 0.683564 0.051914 21.068516 2.233258 -0.026854 2.767374 0.357392 -0.034992 4.516958 0.583169 0.140452 17.931763 2.360770 -1.607605 15.248252 -6.010046 -0.285674 -9.525685 -6.025279 13.117545 -1.599499 -4.975994 10.864185 -28.316653 -19.175917 176.752664 -49.863112 -158.865312 0.412449 -8.659801 -55.856024 -18.548349 -1.447823 -5.287235 19.712213 -7.341917 -2.161396 32.065538 -60.293982 -23.593118 14.778628 16.937619 28.215956 -1.619665 -57.209432 10.649219 -150.189597 71.208310 -149.819370 -14.549980 -24.017793 8.707159 0.640018 -0.983054 0.368117 3.836827 -46.374704 -4.853792 173.838025 63.891200 175.002406 -0.356611 -34.591882 1.408069 0.021654 0.220225 -0.016563
